<svg width="32" height="32" viewBox="0 0 32 32" fill="none" xmlns="http://www.w3.org/2000/svg">
<path d="M7.99998 10.6666C9.46665 10.6666 10.6666 9.46659 10.6666 7.99992C10.6666 6.53325 9.46665 5.33325 7.99998 5.33325C6.53331 5.33325 5.33331 6.53325 5.33331 7.99992C5.33331 9.46659 6.53331 10.6666 7.99998 10.6666ZM16 26.6666C17.4666 26.6666 18.6666 25.4666 18.6666 23.9999C18.6666 22.5333 17.4666 21.3333 16 21.3333C14.5333 21.3333 13.3333 22.5333 13.3333 23.9999C13.3333 25.4666 14.5333 26.6666 16 26.6666ZM7.99998 26.6666C9.46665 26.6666 10.6666 25.4666 10.6666 23.9999C10.6666 22.5333 9.46665 21.3333 7.99998 21.3333C6.53331 21.3333 5.33331 22.5333 5.33331 23.9999C5.33331 25.4666 6.53331 26.6666 7.99998 26.6666ZM7.99998 18.6666C9.46665 18.6666 10.6666 17.4666 10.6666 15.9999C10.6666 14.5333 9.46665 13.3333 7.99998 13.3333C6.53331 13.3333 5.33331 14.5333 5.33331 15.9999C5.33331 17.4666 6.53331 18.6666 7.99998 18.6666ZM16 18.6666C17.4666 18.6666 18.6666 17.4666 18.6666 15.9999C18.6666 14.5333 17.4666 13.3333 16 13.3333C14.5333 13.3333 13.3333 14.5333 13.3333 15.9999C13.3333 17.4666 14.5333 18.6666 16 18.6666ZM21.3333 7.99992C21.3333 9.46659 22.5333 10.6666 24 10.6666C25.4666 10.6666 26.6666 9.46659 26.6666 7.99992C26.6666 6.53325 25.4666 5.33325 24 5.33325C22.5333 5.33325 21.3333 6.53325 21.3333 7.99992ZM16 10.6666C17.4666 10.6666 18.6666 9.46659 18.6666 7.99992C18.6666 6.53325 17.4666 5.33325 16 5.33325C14.5333 5.33325 13.3333 6.53325 13.3333 7.99992C13.3333 9.46659 14.5333 10.6666 16 10.6666ZM24 18.6666C25.4666 18.6666 26.6666 17.4666 26.6666 15.9999C26.6666 14.5333 25.4666 13.3333 24 13.3333C22.5333 13.3333 21.3333 14.5333 21.3333 15.9999C21.3333 17.4666 22.5333 18.6666 24 18.6666ZM24 26.6666C25.4666 26.6666 26.6666 25.4666 26.6666 23.9999C26.6666 22.5333 25.4666 21.3333 24 21.3333C22.5333 21.3333 21.3333 22.5333 21.3333 23.9999C21.3333 25.4666 22.5333 26.6666 24 26.6666Z" fill="black"/>
</svg>
