<svg width="31" height="31" viewBox="0 0 31 31" fill="none" xmlns="http://www.w3.org/2000/svg">
<g clip-path="url(#clip0_2_13)">
<path d="M23.2613 25.8333C24.688 25.8333 25.8446 24.6767 25.8446 23.25C25.8446 21.8232 24.688 20.6666 23.2613 20.6666C21.8346 20.6666 20.678 21.8232 20.678 23.25C20.678 24.6767 21.8346 25.8333 23.2613 25.8333Z" fill="#34A853"/>
<path d="M15.5113 20.6666C17.6514 20.6666 19.3863 18.9317 19.3863 16.7916C19.3863 14.6515 17.6514 12.9166 15.5113 12.9166C13.3712 12.9166 11.6363 14.6515 11.6363 16.7916C11.6363 18.9317 13.3712 20.6666 15.5113 20.6666Z" fill="#4285F4"/>
<path d="M3.875 21.8291C3.875 24.7531 6.24682 27.125 9.17083 27.125H15.5V24.5416L9.02552 24.5255C7.60469 24.5255 6.45833 23.2031 6.45833 21.6354V18.7291H3.875V21.8291Z" fill="#EA4335"/>
<path d="M27.125 11.7542C27.125 8.8302 24.7532 6.45837 21.8292 6.45837H18.7292L21.9583 9.04171C23.3792 9.04171 24.5417 10.3802 24.5417 11.948V16.7917H27.125V11.7542Z" fill="#FBBC04"/>
<path d="M18.0833 3.875H12.9167L10.9792 6.45833H9.17083C6.24682 6.45833 3.875 8.83016 3.875 11.7542V14.8542H6.45833V11.9479C6.45833 10.3802 7.62083 9.04167 9.04167 9.04167H21.9583L18.0833 3.875Z" fill="#4285F4"/>
</g>
<defs>
<clipPath id="clip0_2_13">
<rect width="31" height="31" fill="white"/>
</clipPath>
</defs>
</svg>
