<svg width="24" height="24" viewBox="0 0 24 24" fill="none" xmlns="http://www.w3.org/2000/svg">
<path d="M5.225 21C4.525 21 3.9375 20.7625 3.4625 20.2875C2.9875 19.8125 2.75 19.2417 2.75 18.575C2.75 18.3417 2.775 18.1292 2.825 17.9375C2.875 17.7458 2.95 17.5667 3.05 17.4L8.75 8.875C8.91667 8.64167 9.04167 8.38333 9.125 8.1C9.20833 7.81667 9.25 7.53333 9.25 7.25V4.5H8.75C8.53333 4.5 8.35417 4.42917 8.2125 4.2875C8.07083 4.14583 8 3.96667 8 3.75C8 3.53333 8.07083 3.35417 8.2125 3.2125C8.35417 3.07083 8.53333 3 8.75 3H15.25C15.4667 3 15.6458 3.07083 15.7875 3.2125C15.9292 3.35417 16 3.53333 16 3.75C16 3.96667 15.9292 4.14583 15.7875 4.2875C15.6458 4.42917 15.4667 4.5 15.25 4.5H14.75V7.25C14.75 7.53333 14.7917 7.81667 14.875 8.1C14.9583 8.38333 15.0833 8.64167 15.25 8.875L20.925 17.4C21.025 17.55 21.1042 17.7208 21.1625 17.9125C21.2208 18.1042 21.25 18.325 21.25 18.575C21.25 19.2583 21.0167 19.8333 20.55 20.3C20.0833 20.7667 19.5083 21 18.825 21H5.225ZM10.75 4.5V7.25C10.75 7.68333 10.6875 8.10417 10.5625 8.5125C10.4375 8.92083 10.2583 9.30833 10.025 9.675L6.9 14.375C6.8 14.5083 6.72917 14.6417 6.6875 14.775C6.64583 14.9083 6.625 15.0417 6.625 15.175C6.625 15.5583 6.76667 15.8875 7.05 16.1625C7.33333 16.4375 7.68333 16.575 8.1 16.575C8.56667 16.575 9.03333 16.475 9.5 16.275C9.96667 16.075 10.6333 15.6833 11.5 15.1C12.65 14.35 13.5125 13.8292 14.0875 13.5375C14.6625 13.2458 15.2417 13.0417 15.825 12.925C15.8917 12.9083 15.9375 12.8708 15.9625 12.8125C15.9875 12.7542 15.9833 12.6917 15.95 12.625L14 9.7C13.75 9.35 13.5625 8.96667 13.4375 8.55C13.3125 8.13333 13.25 7.7 13.25 7.25V4.5H10.75Z" fill="#5E5E5E"/>
</svg>
