<svg width="30" height="30" viewBox="0 0 30 30" fill="none" xmlns="http://www.w3.org/2000/svg">
<path d="M15 18.75C17.075 18.75 18.75 17.1125 18.75 15.0375V6.2625C18.75 4.1875 17.075 2.5 15 2.5C12.925 2.5 11.25 4.175 11.25 6.2625V15.0375C11.25 17.1125 12.925 18.75 15 18.75Z" fill="#4285F4"/>
<path d="M13.75 22.6H16.25V27.5H13.75V22.6Z" fill="#34A853"/>
<path d="M8.8125 21.0875C7.225 19.425 6.25 17.55 6.25 15H8.75C8.75 16.8125 9.45 18.025 10.5875 19.225V19.625L9.15 21.1L8.8125 21.0875Z" fill="#FBBC04"/>
<path d="M15 21.1625C14.1777 21.165 13.3632 20.995 12.6036 20.6624C11.844 20.3298 11.1545 19.8412 10.575 19.225L8.8125 21.0875C10.3875 22.7625 12.5875 23.75 15 23.75C19.8375 23.75 23.7375 20.1 23.7375 15H21.25C21.25 18.65 18.45 21.1625 15 21.1625Z" fill="#EA4335"/>
</svg>
